<?xml version="1.0" encoding="UTF-8" standalone="no"?>
<!DOCTYPE svg PUBLIC "-//W3C//DTD SVG 1.1//EN" "http://www.w3.org/Graphics/SVG/1.1/DTD/svg11.dtd">
<svg width="100%" height="100%" viewBox="0 0 16 16" version="1.1" xmlns="http://www.w3.org/2000/svg" xmlns:xlink="http://www.w3.org/1999/xlink" xml:space="preserve" xmlns:serif="http://www.serif.com/" style="fill-rule:evenodd;clip-rule:evenodd;stroke-linejoin:round;stroke-miterlimit:1.41421;">
    <path d="M0,15L6,10L0,5.1L0,15Z" style="fill:rgb(209,209,209);fill-rule:nonzero;"/>
    <path d="M9,10.1L15,15L15,5L9,10.1ZM14,12.9L10.6,10.1L14,7.1L14,12.9Z" style="fill:rgb(209,209,209);fill-rule:nonzero;"/>
    <rect x="7" y="5" width="1" height="1" style="fill:rgb(209,209,209);fill-rule:nonzero;"/>
    <rect x="7" y="3" width="1" height="1" style="fill:rgb(209,209,209);fill-rule:nonzero;"/>
    <rect x="7" y="7" width="1" height="1" style="fill:rgb(209,209,209);fill-rule:nonzero;"/>
    <rect x="7" y="9" width="1" height="1" style="fill:rgb(209,209,209);fill-rule:nonzero;"/>
    <rect x="7" y="11" width="1" height="1" style="fill:rgb(209,209,209);fill-rule:nonzero;"/>
    <rect x="7" y="13" width="1" height="1" style="fill:rgb(209,209,209);fill-rule:nonzero;"/>
    <rect x="7" y="15" width="1" height="1" style="fill:rgb(209,209,209);fill-rule:nonzero;"/>
    <path d="M7.5,1C8.8,1 10.1,1.7 11.1,2.9L10,4L13,4L13,1L11.8,2.2C10.6,0.8 9.1,0 7.5,0C5.6,0 3.9,1 2.6,2.9L3.4,3.5C4.5,1.9 5.9,1 7.5,1Z" style="fill:rgb(209,209,209);fill-rule:nonzero;"/>
</svg>
