<?xml version="1.0" encoding="utf-8"?>
<!-- Generator: Adobe Illustrator 22.0.1, SVG Export Plug-In . SVG Version: 6.00 Build 0)  -->
<svg version="1.1" id="Layer_1" xmlns="http://www.w3.org/2000/svg" xmlns:xlink="http://www.w3.org/1999/xlink" x="0px" y="0px"
	 viewBox="0 0 250 250" style="enable-background:new 0 0 250 250;" xml:space="preserve">
<style type="text/css">
	.st0{fill:url(#SVGID_1_);}
	.st1{fill:url(#XMLID_3_);}
	.st2{clip-path:url(#SVGID_3_);fill:#FFFFFF;}
	.st3{fill:#FFFFFF;}
</style>
<g>
	
		<linearGradient id="SVGID_1_" gradientUnits="userSpaceOnUse" x1="125.4" y1="237" x2="125.4" y2="12" gradientTransform="matrix(1 0 0 -1 0 250)">
		<stop  offset="0" style="stop-color:#5D83AA"/>
		<stop  offset="1" style="stop-color:#1D5389"/>
	</linearGradient>
	<path class="st0" d="M125.4,17.6c59.6,0,107.9,48.3,107.9,107.9S185,233.4,125.4,233.4S17.5,185.1,17.5,125.5S65.8,17.6,125.4,17.6
		 M125.4,13c-30,0-58.3,11.7-79.6,32.9s-32.9,49.5-32.9,79.6s11.7,58.3,32.9,79.6S95.4,238,125.4,238s58.3-11.7,79.6-32.9
		s32.9-49.5,32.9-79.6S226.2,67.2,205,45.9S155.4,13,125.4,13L125.4,13z"/>
</g>
<g>
	<g>
		
			<linearGradient id="XMLID_3_" gradientUnits="userSpaceOnUse" x1="125.4" y1="228.1711" x2="125.4" y2="20.8289" gradientTransform="matrix(1 0 0 -1 0 250)">
			<stop  offset="0" style="stop-color:#5D83AA"/>
			<stop  offset="1" style="stop-color:#1D5389"/>
		</linearGradient>
		<circle id="XMLID_1_" class="st1" cx="125.4" cy="125.5" r="103.7"/>
	</g>
	<g>
		<defs>
			<circle id="SVGID_2_" cx="125.4" cy="125.5" r="103.7"/>
		</defs>
		<clipPath id="SVGID_3_">
			<use xlink:href="#SVGID_2_"  style="overflow:visible;"/>
		</clipPath>
		<path class="st2" d="M226.3,143.1L226.3,143.1c0,0.1-2.9,9.4-23.9,16.9c1-8.8,1.5-18.8,1.5-30c0-18.9-1.8-34.6-4.6-47.4
			c22.8,7.6,25.8,17.5,25.8,17.7v-0.1l8.5-1.7c-0.2-1-2.3-9.6-17-17.8c-5.6-3.1-12.2-5.7-19.8-7.9c-11.4-38.9-32.6-47.4-33.8-47.9
			l-3.1,8.1c0.1,0,8.8,3.6,17.6,17.2c3.1,4.9,6.5,11.5,9.5,20.2c-5.2-1.1-10.8-2-16.8-2.7c-2.5-12.9-6-23.8-10.5-32.4
			C151.5,19.6,143,16.9,142,16.7l-2.2,8.4c0.2,0.1,13.6,4.8,21.2,41.4c-9.6-0.8-20-1.3-31.3-1.4V24.8H121v40.2
			c-9.6,0.2-18.5,0.5-26.9,1.3c7.7-36.4,21.1-41.3,21.3-41.4h-0.1l-2.2-8.4c-0.9,0.2-9.6,2.8-17.7,18.4c-4.5,8.6-7.9,19.3-10.5,32.2
			c-9.2,1.1-17.6,2.5-25.1,4.3c3.2-10.5,7.1-18.2,10.6-23.8c8.6-13.5,17.5-17.1,17.6-17.2l-1.5-4l-1.6-4
			c-1.3,0.5-23.8,9.6-34.9,51.7c-5.6,1.8-10.6,3.8-15,6.1C19.5,88.5,16.8,97,16.5,97.9l8.4,2.3v0.1c0.1-0.2,3.3-8.7,23-16.1
			c-2.4,12.1-3.8,26.4-3.8,43.5c0,11.1,0.5,20.9,1.5,29.6c-16.7-7-19.5-14.6-19.6-14.7v0.1l-8.5,2.4c0.3,0.9,2.9,9.6,18.6,17.6
			c3.2,1.6,6.7,3.2,10.6,4.6c9.2,57.3,38,59.3,39.5,59.3l0.5-8.6c-0.4,0-8.4-0.7-16.6-11.7c-5-6.6-10.6-17.7-14-36.1
			c7.9,2.2,16.9,3.9,26.9,5.2c7.4,51.9,26.1,58.5,28.7,59.2l2.2-8.4h0.1c-0.2-0.1-15.3-5.6-22-49.8c8.9,0.8,18.6,1.4,28.9,1.5v52.4
			h8.6v-52.3c12.1,0,23.3-0.5,33.4-1.5c-6.5,44-20.9,49.6-21.1,49.7c0.1,0,0.2,0,0.2,0l2.2,8.4c2.5-0.6,20.6-7.3,27.7-59
			c7.2-0.9,13.7-2.1,19.8-3.5c-3.5,18.7-9.1,29.8-14.1,36.4c-8.3,10.9-16.2,11.6-16.5,11.7l0.4,8.6c1.5-0.1,30.2-2,39.4-59.2
			c6.3-2,11.8-4.3,16.7-6.9c14.7-8.2,16.8-16.8,17-17.8L226.3,143.1z M54.7,160.6c-1.2-9.4-2-20.2-2-32.9c0-19,1.9-34.3,4.7-46.6
			c7.1-2,15.7-3.7,26.1-5c-2.3,14.8-3.4,32-3.4,51.5c0,14.9,0.7,27.8,1.8,38.8C70.9,164.9,61.9,162.9,54.7,160.6z M90.9,167.6
			c-1.3-11.1-2-24.2-2-39.9c0-21.8,1.5-39,3.6-52.5c8.5-0.8,17.9-1.3,28.5-1.5v95.6C109.7,169,99.7,168.5,90.9,167.6z M129.7,169.3
			V73.6c12.6,0.1,23.5,0.6,32.9,1.5c2.2,13.6,3.6,30.8,3.6,52.4c0,15.7-0.7,28.9-2,40C154.4,168.7,143,169.3,129.7,169.3z
			 M173.1,166.6c1.2-11.1,1.8-23.9,1.8-39c0-19.5-1.1-36.7-3.4-51.4c6.8,0.9,12.8,2.1,18.1,3.4c3.3,12.8,5.6,29.3,5.6,50.2
			c0,12.7-0.7,23.6-1.9,32.9C187.7,164.2,180.9,165.5,173.1,166.6z"/>
	</g>
</g>
<path class="st3" d="M125.4,26.2c26.5,0,51.4,10.3,70.2,29.1s29.1,43.7,29.1,70.2s-10.3,51.4-29.1,70.2s-43.7,29.1-70.2,29.1
	S74,214.5,55.2,195.7S26.1,152,26.1,125.5s10.3-51.4,29.1-70.2S98.8,26.2,125.4,26.2 M125.4,17.6c-59.6,0-107.9,48.3-107.9,107.9
	s48.3,107.9,107.9,107.9s107.9-48.3,107.9-107.9S185,17.6,125.4,17.6L125.4,17.6z"/>
</svg>
